<mxfile host="app.diagrams.net" agent="Mozilla/5.0 (Macintosh; Intel Mac OS X 10_15_7) AppleWebKit/605.1.15 (KHTML, like Gecko) Version/18.0.1 Safari/605.1.15" version="26.1.1">
  <diagram name="Page-1" id="KWKixU5v3_Od0d5qYe9I">
    <mxGraphModel dx="1434" dy="827" grid="1" gridSize="10" guides="1" tooltips="1" connect="1" arrows="1" fold="1" page="1" pageScale="1" pageWidth="827" pageHeight="1169" math="0" shadow="0">
      <root>
        <mxCell id="0" />
        <mxCell id="1" parent="0" />
        <mxCell id="nU5c1gYI4mI4mL374CUJ-8" value="users" style="rounded=0;whiteSpace=wrap;html=1;" parent="1" vertex="1">
          <mxGeometry x="230" y="330" width="120" height="60" as="geometry" />
        </mxCell>
        <mxCell id="nU5c1gYI4mI4mL374CUJ-9" value="trainings" style="rounded=0;whiteSpace=wrap;html=1;" parent="1" vertex="1">
          <mxGeometry x="420" y="560" width="120" height="60" as="geometry" />
        </mxCell>
        <mxCell id="nU5c1gYI4mI4mL374CUJ-10" value="exercises" style="rounded=0;whiteSpace=wrap;html=1;" parent="1" vertex="1">
          <mxGeometry x="604" y="700" width="120" height="60" as="geometry" />
        </mxCell>
        <mxCell id="nU5c1gYI4mI4mL374CUJ-11" value="exercise_types" style="rounded=0;whiteSpace=wrap;html=1;" parent="1" vertex="1">
          <mxGeometry x="484" y="1000" width="120" height="60" as="geometry" />
        </mxCell>
        <mxCell id="nU5c1gYI4mI4mL374CUJ-12" value="&lt;span style=&quot;caret-color: rgb(0, 0, 0); color: rgb(0, 0, 0); font-family: Helvetica; font-size: 12px; font-style: normal; font-variant-caps: normal; font-weight: 400; letter-spacing: normal; text-align: center; text-indent: 0px; text-transform: none; white-space: normal; word-spacing: 0px; -webkit-text-stroke-width: 0px; background-color: rgb(251, 251, 251); text-decoration: none; float: none; display: inline !important;&quot;&gt;exercise_subtypes&lt;/span&gt;" style="rounded=0;whiteSpace=wrap;html=1;" parent="1" vertex="1">
          <mxGeometry x="724" y="1000" width="120" height="60" as="geometry" />
        </mxCell>
        <mxCell id="nU5c1gYI4mI4mL374CUJ-13" value="sessions" style="rounded=0;whiteSpace=wrap;html=1;" parent="1" vertex="1">
          <mxGeometry x="604" y="330" width="120" height="60" as="geometry" />
        </mxCell>
        <mxCell id="nU5c1gYI4mI4mL374CUJ-15" value="" style="endArrow=none;html=1;rounded=0;" parent="1" source="nU5c1gYI4mI4mL374CUJ-8" target="nU5c1gYI4mI4mL374CUJ-16" edge="1">
          <mxGeometry width="50" height="50" relative="1" as="geometry">
            <mxPoint x="370" y="520" as="sourcePoint" />
            <mxPoint x="420" y="470" as="targetPoint" />
          </mxGeometry>
        </mxCell>
        <mxCell id="nU5c1gYI4mI4mL374CUJ-16" value="has" style="rhombus;whiteSpace=wrap;html=1;" parent="1" vertex="1">
          <mxGeometry x="440" y="320" width="80" height="80" as="geometry" />
        </mxCell>
        <mxCell id="nU5c1gYI4mI4mL374CUJ-17" value="" style="endArrow=none;html=1;rounded=0;" parent="1" source="nU5c1gYI4mI4mL374CUJ-16" target="nU5c1gYI4mI4mL374CUJ-13" edge="1">
          <mxGeometry width="50" height="50" relative="1" as="geometry">
            <mxPoint x="360" y="460" as="sourcePoint" />
            <mxPoint x="450" y="460" as="targetPoint" />
          </mxGeometry>
        </mxCell>
        <mxCell id="nU5c1gYI4mI4mL374CUJ-18" value="contains" style="rhombus;whiteSpace=wrap;html=1;" parent="1" vertex="1">
          <mxGeometry x="680" y="840" width="80" height="80" as="geometry" />
        </mxCell>
        <mxCell id="nU5c1gYI4mI4mL374CUJ-19" value="" style="endArrow=none;html=1;rounded=0;" parent="1" source="nU5c1gYI4mI4mL374CUJ-18" target="nU5c1gYI4mI4mL374CUJ-10" edge="1">
          <mxGeometry width="50" height="50" relative="1" as="geometry">
            <mxPoint x="834" y="630" as="sourcePoint" />
            <mxPoint x="884" y="580" as="targetPoint" />
          </mxGeometry>
        </mxCell>
        <mxCell id="nU5c1gYI4mI4mL374CUJ-20" value="" style="endArrow=none;html=1;rounded=0;" parent="1" source="nU5c1gYI4mI4mL374CUJ-18" target="nU5c1gYI4mI4mL374CUJ-12" edge="1">
          <mxGeometry width="50" height="50" relative="1" as="geometry">
            <mxPoint x="814" y="660" as="sourcePoint" />
            <mxPoint x="864" y="610" as="targetPoint" />
          </mxGeometry>
        </mxCell>
        <mxCell id="nU5c1gYI4mI4mL374CUJ-21" value="" style="endArrow=none;html=1;rounded=0;" parent="1" source="nU5c1gYI4mI4mL374CUJ-11" target="AYut2Y6KYgVJutitVhbc-2" edge="1">
          <mxGeometry width="50" height="50" relative="1" as="geometry">
            <mxPoint x="864" y="680" as="sourcePoint" />
            <mxPoint x="914" y="630" as="targetPoint" />
          </mxGeometry>
        </mxCell>
        <mxCell id="nU5c1gYI4mI4mL374CUJ-22" value="" style="endArrow=none;html=1;rounded=0;" parent="1" source="nU5c1gYI4mI4mL374CUJ-23" target="nU5c1gYI4mI4mL374CUJ-13" edge="1">
          <mxGeometry width="50" height="50" relative="1" as="geometry">
            <mxPoint x="455" y="570" as="sourcePoint" />
            <mxPoint x="505" y="520" as="targetPoint" />
          </mxGeometry>
        </mxCell>
        <mxCell id="nU5c1gYI4mI4mL374CUJ-23" value="consists" style="rhombus;whiteSpace=wrap;html=1;" parent="1" vertex="1">
          <mxGeometry x="624" y="505" width="80" height="80" as="geometry" />
        </mxCell>
        <mxCell id="nU5c1gYI4mI4mL374CUJ-24" value="" style="endArrow=none;html=1;rounded=0;" parent="1" source="nU5c1gYI4mI4mL374CUJ-23" target="nU5c1gYI4mI4mL374CUJ-10" edge="1">
          <mxGeometry width="50" height="50" relative="1" as="geometry">
            <mxPoint x="580" y="630" as="sourcePoint" />
            <mxPoint x="630" y="580" as="targetPoint" />
          </mxGeometry>
        </mxCell>
        <mxCell id="nU5c1gYI4mI4mL374CUJ-25" value="" style="endArrow=none;html=1;rounded=0;" parent="1" source="nU5c1gYI4mI4mL374CUJ-26" target="nU5c1gYI4mI4mL374CUJ-9" edge="1">
          <mxGeometry width="50" height="50" relative="1" as="geometry">
            <mxPoint x="390" y="330" as="sourcePoint" />
            <mxPoint x="440" y="280" as="targetPoint" />
          </mxGeometry>
        </mxCell>
        <mxCell id="nU5c1gYI4mI4mL374CUJ-26" value="does" style="rhombus;whiteSpace=wrap;html=1;" parent="1" vertex="1">
          <mxGeometry x="350" y="440" width="80" height="80" as="geometry" />
        </mxCell>
        <mxCell id="nU5c1gYI4mI4mL374CUJ-27" value="" style="endArrow=none;html=1;rounded=0;" parent="1" source="nU5c1gYI4mI4mL374CUJ-8" target="nU5c1gYI4mI4mL374CUJ-26" edge="1">
          <mxGeometry width="50" height="50" relative="1" as="geometry">
            <mxPoint x="390" y="330" as="sourcePoint" />
            <mxPoint x="440" y="280" as="targetPoint" />
          </mxGeometry>
        </mxCell>
        <mxCell id="nU5c1gYI4mI4mL374CUJ-28" value="has" style="rhombus;whiteSpace=wrap;html=1;" parent="1" vertex="1">
          <mxGeometry x="524" y="440" width="80" height="80" as="geometry" />
        </mxCell>
        <mxCell id="nU5c1gYI4mI4mL374CUJ-29" value="" style="endArrow=none;html=1;rounded=0;" parent="1" source="nU5c1gYI4mI4mL374CUJ-9" target="nU5c1gYI4mI4mL374CUJ-28" edge="1">
          <mxGeometry width="50" height="50" relative="1" as="geometry">
            <mxPoint x="390" y="520" as="sourcePoint" />
            <mxPoint x="440" y="470" as="targetPoint" />
          </mxGeometry>
        </mxCell>
        <mxCell id="nU5c1gYI4mI4mL374CUJ-30" value="" style="endArrow=none;html=1;rounded=0;" parent="1" source="nU5c1gYI4mI4mL374CUJ-28" target="nU5c1gYI4mI4mL374CUJ-13" edge="1">
          <mxGeometry width="50" height="50" relative="1" as="geometry">
            <mxPoint x="390" y="520" as="sourcePoint" />
            <mxPoint x="440" y="470" as="targetPoint" />
          </mxGeometry>
        </mxCell>
        <mxCell id="nU5c1gYI4mI4mL374CUJ-31" value="sessions_&lt;div&gt;exercises_id&lt;/div&gt;" style="ellipse;whiteSpace=wrap;html=1;fontStyle=1" parent="1" vertex="1">
          <mxGeometry x="770" y="430" width="90" height="50" as="geometry" />
        </mxCell>
        <mxCell id="nU5c1gYI4mI4mL374CUJ-33" value="num_sets" style="ellipse;whiteSpace=wrap;html=1;" parent="1" vertex="1">
          <mxGeometry x="904" y="454.5" width="90" height="50" as="geometry" />
        </mxCell>
        <mxCell id="nU5c1gYI4mI4mL374CUJ-34" value="num_reps" style="ellipse;whiteSpace=wrap;html=1;" parent="1" vertex="1">
          <mxGeometry x="904" y="519.5" width="90" height="50" as="geometry" />
        </mxCell>
        <mxCell id="nU5c1gYI4mI4mL374CUJ-35" value="rest_secons" style="ellipse;whiteSpace=wrap;html=1;" parent="1" vertex="1">
          <mxGeometry x="904" y="585" width="90" height="50" as="geometry" />
        </mxCell>
        <mxCell id="nU5c1gYI4mI4mL374CUJ-36" value="" style="endArrow=none;dashed=1;html=1;rounded=0;" parent="1" source="nU5c1gYI4mI4mL374CUJ-23" target="nU5c1gYI4mI4mL374CUJ-31" edge="1">
          <mxGeometry width="50" height="50" relative="1" as="geometry">
            <mxPoint x="850" y="670" as="sourcePoint" />
            <mxPoint x="900" y="620" as="targetPoint" />
          </mxGeometry>
        </mxCell>
        <mxCell id="nU5c1gYI4mI4mL374CUJ-37" value="" style="endArrow=none;dashed=1;html=1;rounded=0;" parent="1" source="nU5c1gYI4mI4mL374CUJ-23" target="nU5c1gYI4mI4mL374CUJ-33" edge="1">
          <mxGeometry width="50" height="50" relative="1" as="geometry">
            <mxPoint x="716" y="507" as="sourcePoint" />
            <mxPoint x="844" y="450" as="targetPoint" />
          </mxGeometry>
        </mxCell>
        <mxCell id="nU5c1gYI4mI4mL374CUJ-38" value="" style="endArrow=none;dashed=1;html=1;rounded=0;" parent="1" source="nU5c1gYI4mI4mL374CUJ-23" target="nU5c1gYI4mI4mL374CUJ-34" edge="1">
          <mxGeometry width="50" height="50" relative="1" as="geometry">
            <mxPoint x="710" y="486" as="sourcePoint" />
            <mxPoint x="911" y="460" as="targetPoint" />
          </mxGeometry>
        </mxCell>
        <mxCell id="nU5c1gYI4mI4mL374CUJ-39" value="" style="endArrow=none;dashed=1;html=1;rounded=0;" parent="1" source="nU5c1gYI4mI4mL374CUJ-23" target="nU5c1gYI4mI4mL374CUJ-35" edge="1">
          <mxGeometry width="50" height="50" relative="1" as="geometry">
            <mxPoint x="720" y="496" as="sourcePoint" />
            <mxPoint x="921" y="470" as="targetPoint" />
          </mxGeometry>
        </mxCell>
        <mxCell id="nU5c1gYI4mI4mL374CUJ-40" value="user_id" style="ellipse;whiteSpace=wrap;html=1;fontStyle=1" parent="1" vertex="1">
          <mxGeometry x="270" y="230" width="90" height="50" as="geometry" />
        </mxCell>
        <mxCell id="nU5c1gYI4mI4mL374CUJ-41" value="name" style="ellipse;whiteSpace=wrap;html=1;" parent="1" vertex="1">
          <mxGeometry x="150" y="230" width="90" height="50" as="geometry" />
        </mxCell>
        <mxCell id="nU5c1gYI4mI4mL374CUJ-42" value="email" style="ellipse;whiteSpace=wrap;html=1;" parent="1" vertex="1">
          <mxGeometry x="60" y="290" width="90" height="50" as="geometry" />
        </mxCell>
        <mxCell id="nU5c1gYI4mI4mL374CUJ-43" value="password" style="ellipse;whiteSpace=wrap;html=1;" parent="1" vertex="1">
          <mxGeometry x="60" y="360" width="90" height="50" as="geometry" />
        </mxCell>
        <mxCell id="nU5c1gYI4mI4mL374CUJ-44" value="date_register" style="ellipse;whiteSpace=wrap;html=1;" parent="1" vertex="1">
          <mxGeometry x="150" y="420" width="90" height="50" as="geometry" />
        </mxCell>
        <mxCell id="nU5c1gYI4mI4mL374CUJ-45" value="" style="endArrow=none;html=1;rounded=0;" parent="1" source="nU5c1gYI4mI4mL374CUJ-8" target="nU5c1gYI4mI4mL374CUJ-40" edge="1">
          <mxGeometry width="50" height="50" relative="1" as="geometry">
            <mxPoint x="390" y="500" as="sourcePoint" />
            <mxPoint x="440" y="450" as="targetPoint" />
          </mxGeometry>
        </mxCell>
        <mxCell id="nU5c1gYI4mI4mL374CUJ-46" value="" style="endArrow=none;html=1;rounded=0;" parent="1" source="nU5c1gYI4mI4mL374CUJ-8" target="nU5c1gYI4mI4mL374CUJ-41" edge="1">
          <mxGeometry width="50" height="50" relative="1" as="geometry">
            <mxPoint x="307" y="340" as="sourcePoint" />
            <mxPoint x="319" y="290" as="targetPoint" />
          </mxGeometry>
        </mxCell>
        <mxCell id="nU5c1gYI4mI4mL374CUJ-47" value="" style="endArrow=none;html=1;rounded=0;" parent="1" source="nU5c1gYI4mI4mL374CUJ-8" target="nU5c1gYI4mI4mL374CUJ-42" edge="1">
          <mxGeometry width="50" height="50" relative="1" as="geometry">
            <mxPoint x="317" y="350" as="sourcePoint" />
            <mxPoint x="329" y="300" as="targetPoint" />
          </mxGeometry>
        </mxCell>
        <mxCell id="nU5c1gYI4mI4mL374CUJ-48" value="" style="endArrow=none;html=1;rounded=0;" parent="1" source="nU5c1gYI4mI4mL374CUJ-43" target="nU5c1gYI4mI4mL374CUJ-8" edge="1">
          <mxGeometry width="50" height="50" relative="1" as="geometry">
            <mxPoint x="327" y="360" as="sourcePoint" />
            <mxPoint x="339" y="310" as="targetPoint" />
          </mxGeometry>
        </mxCell>
        <mxCell id="nU5c1gYI4mI4mL374CUJ-49" value="" style="endArrow=none;html=1;rounded=0;" parent="1" source="nU5c1gYI4mI4mL374CUJ-44" target="nU5c1gYI4mI4mL374CUJ-8" edge="1">
          <mxGeometry width="50" height="50" relative="1" as="geometry">
            <mxPoint x="337" y="370" as="sourcePoint" />
            <mxPoint x="349" y="320" as="targetPoint" />
          </mxGeometry>
        </mxCell>
        <mxCell id="nU5c1gYI4mI4mL374CUJ-50" value="session_id" style="ellipse;whiteSpace=wrap;html=1;fontStyle=1" parent="1" vertex="1">
          <mxGeometry x="480" y="230" width="90" height="50" as="geometry" />
        </mxCell>
        <mxCell id="nU5c1gYI4mI4mL374CUJ-51" value="name" style="ellipse;whiteSpace=wrap;html=1;" parent="1" vertex="1">
          <mxGeometry x="600" y="230" width="90" height="50" as="geometry" />
        </mxCell>
        <mxCell id="nU5c1gYI4mI4mL374CUJ-52" value="date_creation" style="ellipse;whiteSpace=wrap;html=1;" parent="1" vertex="1">
          <mxGeometry x="810" y="290" width="90" height="50" as="geometry" />
        </mxCell>
        <mxCell id="nU5c1gYI4mI4mL374CUJ-53" value="description" style="ellipse;whiteSpace=wrap;html=1;" parent="1" vertex="1">
          <mxGeometry x="724" y="230" width="90" height="50" as="geometry" />
        </mxCell>
        <mxCell id="nU5c1gYI4mI4mL374CUJ-54" value="" style="endArrow=none;html=1;rounded=0;" parent="1" source="nU5c1gYI4mI4mL374CUJ-13" target="nU5c1gYI4mI4mL374CUJ-50" edge="1">
          <mxGeometry width="50" height="50" relative="1" as="geometry">
            <mxPoint x="307" y="340" as="sourcePoint" />
            <mxPoint x="319" y="290" as="targetPoint" />
          </mxGeometry>
        </mxCell>
        <mxCell id="nU5c1gYI4mI4mL374CUJ-55" value="" style="endArrow=none;html=1;rounded=0;" parent="1" source="nU5c1gYI4mI4mL374CUJ-13" target="nU5c1gYI4mI4mL374CUJ-51" edge="1">
          <mxGeometry width="50" height="50" relative="1" as="geometry">
            <mxPoint x="317" y="350" as="sourcePoint" />
            <mxPoint x="329" y="300" as="targetPoint" />
          </mxGeometry>
        </mxCell>
        <mxCell id="nU5c1gYI4mI4mL374CUJ-57" value="" style="endArrow=none;html=1;rounded=0;" parent="1" source="nU5c1gYI4mI4mL374CUJ-13" target="nU5c1gYI4mI4mL374CUJ-52" edge="1">
          <mxGeometry width="50" height="50" relative="1" as="geometry">
            <mxPoint x="337" y="370" as="sourcePoint" />
            <mxPoint x="349" y="320" as="targetPoint" />
          </mxGeometry>
        </mxCell>
        <mxCell id="nU5c1gYI4mI4mL374CUJ-58" value="exercise_id" style="ellipse;whiteSpace=wrap;html=1;fontStyle=1" parent="1" vertex="1">
          <mxGeometry x="484" y="640" width="90" height="50" as="geometry" />
        </mxCell>
        <mxCell id="nU5c1gYI4mI4mL374CUJ-59" value="name" style="ellipse;whiteSpace=wrap;html=1;" parent="1" vertex="1">
          <mxGeometry x="430" y="705" width="90" height="50" as="geometry" />
        </mxCell>
        <mxCell id="nU5c1gYI4mI4mL374CUJ-60" value="is_global" style="ellipse;whiteSpace=wrap;html=1;" parent="1" vertex="1">
          <mxGeometry x="754" y="640" width="90" height="50" as="geometry" />
        </mxCell>
        <mxCell id="nU5c1gYI4mI4mL374CUJ-61" value="description" style="ellipse;whiteSpace=wrap;html=1;" parent="1" vertex="1">
          <mxGeometry x="480" y="770" width="90" height="50" as="geometry" />
        </mxCell>
        <mxCell id="nU5c1gYI4mI4mL374CUJ-62" value="video_url" style="ellipse;whiteSpace=wrap;html=1;" parent="1" vertex="1">
          <mxGeometry x="814" y="705" width="90" height="50" as="geometry" />
        </mxCell>
        <mxCell id="nU5c1gYI4mI4mL374CUJ-63" value="image_url" style="ellipse;whiteSpace=wrap;html=1;" parent="1" vertex="1">
          <mxGeometry x="760" y="770" width="90" height="50" as="geometry" />
        </mxCell>
        <mxCell id="nU5c1gYI4mI4mL374CUJ-64" value="" style="endArrow=none;dashed=1;html=1;rounded=0;" parent="1" source="nU5c1gYI4mI4mL374CUJ-13" target="nU5c1gYI4mI4mL374CUJ-53" edge="1">
          <mxGeometry width="50" height="50" relative="1" as="geometry">
            <mxPoint x="702" y="478" as="sourcePoint" />
            <mxPoint x="830" y="421" as="targetPoint" />
          </mxGeometry>
        </mxCell>
        <mxCell id="nU5c1gYI4mI4mL374CUJ-65" value="" style="endArrow=none;html=1;rounded=0;" parent="1" source="nU5c1gYI4mI4mL374CUJ-10" target="nU5c1gYI4mI4mL374CUJ-58" edge="1">
          <mxGeometry width="50" height="50" relative="1" as="geometry">
            <mxPoint x="513" y="570" as="sourcePoint" />
            <mxPoint x="557" y="513" as="targetPoint" />
          </mxGeometry>
        </mxCell>
        <mxCell id="nU5c1gYI4mI4mL374CUJ-66" value="" style="endArrow=none;html=1;rounded=0;" parent="1" source="nU5c1gYI4mI4mL374CUJ-10" target="nU5c1gYI4mI4mL374CUJ-59" edge="1">
          <mxGeometry width="50" height="50" relative="1" as="geometry">
            <mxPoint x="523" y="580" as="sourcePoint" />
            <mxPoint x="567" y="523" as="targetPoint" />
          </mxGeometry>
        </mxCell>
        <mxCell id="nU5c1gYI4mI4mL374CUJ-67" value="" style="endArrow=none;html=1;rounded=0;" parent="1" source="nU5c1gYI4mI4mL374CUJ-10" target="nU5c1gYI4mI4mL374CUJ-60" edge="1">
          <mxGeometry width="50" height="50" relative="1" as="geometry">
            <mxPoint x="533" y="590" as="sourcePoint" />
            <mxPoint x="577" y="533" as="targetPoint" />
          </mxGeometry>
        </mxCell>
        <mxCell id="nU5c1gYI4mI4mL374CUJ-68" value="" style="endArrow=none;dashed=1;html=1;rounded=0;" parent="1" source="nU5c1gYI4mI4mL374CUJ-61" target="nU5c1gYI4mI4mL374CUJ-10" edge="1">
          <mxGeometry width="50" height="50" relative="1" as="geometry">
            <mxPoint x="930" y="760" as="sourcePoint" />
            <mxPoint x="1055" y="810" as="targetPoint" />
          </mxGeometry>
        </mxCell>
        <mxCell id="nU5c1gYI4mI4mL374CUJ-69" value="" style="endArrow=none;dashed=1;html=1;rounded=0;" parent="1" source="nU5c1gYI4mI4mL374CUJ-10" target="nU5c1gYI4mI4mL374CUJ-62" edge="1">
          <mxGeometry width="50" height="50" relative="1" as="geometry">
            <mxPoint x="940" y="770" as="sourcePoint" />
            <mxPoint x="1065" y="820" as="targetPoint" />
          </mxGeometry>
        </mxCell>
        <mxCell id="nU5c1gYI4mI4mL374CUJ-70" value="" style="endArrow=none;dashed=1;html=1;rounded=0;" parent="1" source="nU5c1gYI4mI4mL374CUJ-10" target="nU5c1gYI4mI4mL374CUJ-63" edge="1">
          <mxGeometry width="50" height="50" relative="1" as="geometry">
            <mxPoint x="950" y="780" as="sourcePoint" />
            <mxPoint x="1075" y="830" as="targetPoint" />
          </mxGeometry>
        </mxCell>
        <mxCell id="nU5c1gYI4mI4mL374CUJ-72" value="date_creation" style="ellipse;whiteSpace=wrap;html=1;" parent="1" vertex="1">
          <mxGeometry x="230" y="565" width="90" height="50" as="geometry" />
        </mxCell>
        <mxCell id="nU5c1gYI4mI4mL374CUJ-73" value="" style="endArrow=none;html=1;rounded=0;" parent="1" source="nU5c1gYI4mI4mL374CUJ-72" target="nU5c1gYI4mI4mL374CUJ-9" edge="1">
          <mxGeometry width="50" height="50" relative="1" as="geometry">
            <mxPoint x="270" y="720" as="sourcePoint" />
            <mxPoint x="327" y="788" as="targetPoint" />
          </mxGeometry>
        </mxCell>
        <mxCell id="nU5c1gYI4mI4mL374CUJ-74" value="training_id" style="ellipse;whiteSpace=wrap;html=1;fontStyle=1" parent="1" vertex="1">
          <mxGeometry x="250" y="500" width="90" height="50" as="geometry" />
        </mxCell>
        <mxCell id="nU5c1gYI4mI4mL374CUJ-75" value="" style="endArrow=none;html=1;rounded=0;" parent="1" source="nU5c1gYI4mI4mL374CUJ-74" target="nU5c1gYI4mI4mL374CUJ-9" edge="1">
          <mxGeometry width="50" height="50" relative="1" as="geometry">
            <mxPoint x="330" y="596" as="sourcePoint" />
            <mxPoint x="430" y="599" as="targetPoint" />
          </mxGeometry>
        </mxCell>
        <mxCell id="nU5c1gYI4mI4mL374CUJ-76" value="training_&lt;div&gt;duration_&lt;/div&gt;&lt;div&gt;seconds&lt;/div&gt;" style="ellipse;whiteSpace=wrap;html=1;" parent="1" vertex="1">
          <mxGeometry x="250" y="630" width="90" height="50" as="geometry" />
        </mxCell>
        <mxCell id="nU5c1gYI4mI4mL374CUJ-77" value="" style="endArrow=none;html=1;rounded=0;" parent="1" source="nU5c1gYI4mI4mL374CUJ-76" target="nU5c1gYI4mI4mL374CUJ-9" edge="1">
          <mxGeometry width="50" height="50" relative="1" as="geometry">
            <mxPoint x="240" y="800" as="sourcePoint" />
            <mxPoint x="390" y="669" as="targetPoint" />
          </mxGeometry>
        </mxCell>
        <mxCell id="nU5c1gYI4mI4mL374CUJ-78" value="type_id" style="ellipse;whiteSpace=wrap;html=1;fontStyle=1" parent="1" vertex="1">
          <mxGeometry x="435" y="910" width="90" height="50" as="geometry" />
        </mxCell>
        <mxCell id="nU5c1gYI4mI4mL374CUJ-79" value="" style="endArrow=none;html=1;rounded=0;" parent="1" source="nU5c1gYI4mI4mL374CUJ-11" target="nU5c1gYI4mI4mL374CUJ-78" edge="1">
          <mxGeometry width="50" height="50" relative="1" as="geometry">
            <mxPoint x="484" y="1031" as="sourcePoint" />
            <mxPoint x="437" y="843" as="targetPoint" />
          </mxGeometry>
        </mxCell>
        <mxCell id="nU5c1gYI4mI4mL374CUJ-80" value="subtype_id" style="ellipse;whiteSpace=wrap;html=1;fontStyle=1" parent="1" vertex="1">
          <mxGeometry x="810" y="910" width="90" height="50" as="geometry" />
        </mxCell>
        <mxCell id="nU5c1gYI4mI4mL374CUJ-81" value="" style="endArrow=none;html=1;rounded=0;" parent="1" source="nU5c1gYI4mI4mL374CUJ-12" target="nU5c1gYI4mI4mL374CUJ-80" edge="1">
          <mxGeometry width="50" height="50" relative="1" as="geometry">
            <mxPoint x="1011" y="1003" as="sourcePoint" />
            <mxPoint x="964" y="840" as="targetPoint" />
          </mxGeometry>
        </mxCell>
        <mxCell id="nU5c1gYI4mI4mL374CUJ-82" value="name" style="ellipse;whiteSpace=wrap;html=1;" parent="1" vertex="1">
          <mxGeometry x="330" y="1005" width="90" height="50" as="geometry" />
        </mxCell>
        <mxCell id="nU5c1gYI4mI4mL374CUJ-83" value="" style="endArrow=none;html=1;rounded=0;" parent="1" source="nU5c1gYI4mI4mL374CUJ-11" target="nU5c1gYI4mI4mL374CUJ-82" edge="1">
          <mxGeometry width="50" height="50" relative="1" as="geometry">
            <mxPoint x="430" y="1075" as="sourcePoint" />
            <mxPoint x="393" y="868" as="targetPoint" />
          </mxGeometry>
        </mxCell>
        <mxCell id="nU5c1gYI4mI4mL374CUJ-84" value="name" style="ellipse;whiteSpace=wrap;html=1;" parent="1" vertex="1">
          <mxGeometry x="904" y="1005" width="90" height="50" as="geometry" />
        </mxCell>
        <mxCell id="nU5c1gYI4mI4mL374CUJ-85" value="" style="endArrow=none;html=1;rounded=0;" parent="1" source="nU5c1gYI4mI4mL374CUJ-12" target="nU5c1gYI4mI4mL374CUJ-84" edge="1">
          <mxGeometry width="50" height="50" relative="1" as="geometry">
            <mxPoint x="1094" y="1075" as="sourcePoint" />
            <mxPoint x="1057" y="868" as="targetPoint" />
          </mxGeometry>
        </mxCell>
        <mxCell id="AYut2Y6KYgVJutitVhbc-2" value="contains" style="rhombus;whiteSpace=wrap;html=1;" vertex="1" parent="1">
          <mxGeometry x="560" y="840" width="80" height="80" as="geometry" />
        </mxCell>
        <mxCell id="AYut2Y6KYgVJutitVhbc-3" value="" style="endArrow=none;html=1;rounded=0;" edge="1" parent="1" source="AYut2Y6KYgVJutitVhbc-2" target="nU5c1gYI4mI4mL374CUJ-10">
          <mxGeometry width="50" height="50" relative="1" as="geometry">
            <mxPoint x="754" y="630" as="sourcePoint" />
            <mxPoint x="584" y="760" as="targetPoint" />
          </mxGeometry>
        </mxCell>
        <mxCell id="AYut2Y6KYgVJutitVhbc-5" value="N" style="text;html=1;align=center;verticalAlign=middle;whiteSpace=wrap;rounded=0;" vertex="1" parent="1">
          <mxGeometry x="544" y="330" width="60" height="30" as="geometry" />
        </mxCell>
        <mxCell id="AYut2Y6KYgVJutitVhbc-6" value="1" style="text;html=1;align=center;verticalAlign=middle;whiteSpace=wrap;rounded=0;" vertex="1" parent="1">
          <mxGeometry x="350" y="330" width="60" height="30" as="geometry" />
        </mxCell>
        <mxCell id="AYut2Y6KYgVJutitVhbc-7" value="N" style="text;html=1;align=center;verticalAlign=middle;whiteSpace=wrap;rounded=0;" vertex="1" parent="1">
          <mxGeometry x="430" y="530" width="60" height="30" as="geometry" />
        </mxCell>
        <mxCell id="AYut2Y6KYgVJutitVhbc-8" value="1" style="text;html=1;align=center;verticalAlign=middle;whiteSpace=wrap;rounded=0;" vertex="1" parent="1">
          <mxGeometry x="320" y="390" width="60" height="30" as="geometry" />
        </mxCell>
        <mxCell id="AYut2Y6KYgVJutitVhbc-9" value="N" style="text;html=1;align=center;verticalAlign=middle;whiteSpace=wrap;rounded=0;" vertex="1" parent="1">
          <mxGeometry x="470" y="529.5" width="60" height="30" as="geometry" />
        </mxCell>
        <mxCell id="AYut2Y6KYgVJutitVhbc-10" value="1" style="text;html=1;align=center;verticalAlign=middle;whiteSpace=wrap;rounded=0;" vertex="1" parent="1">
          <mxGeometry x="570" y="390" width="60" height="30" as="geometry" />
        </mxCell>
        <mxCell id="AYut2Y6KYgVJutitVhbc-11" value="N" style="text;html=1;align=center;verticalAlign=middle;whiteSpace=wrap;rounded=0;" vertex="1" parent="1">
          <mxGeometry x="650" y="390" width="60" height="30" as="geometry" />
        </mxCell>
        <mxCell id="AYut2Y6KYgVJutitVhbc-12" value="N" style="text;html=1;align=center;verticalAlign=middle;whiteSpace=wrap;rounded=0;" vertex="1" parent="1">
          <mxGeometry x="650" y="670" width="60" height="30" as="geometry" />
        </mxCell>
        <mxCell id="AYut2Y6KYgVJutitVhbc-13" value="1" style="text;html=1;align=center;verticalAlign=middle;whiteSpace=wrap;rounded=0;" vertex="1" parent="1">
          <mxGeometry x="724" y="970" width="60" height="30" as="geometry" />
        </mxCell>
        <mxCell id="AYut2Y6KYgVJutitVhbc-14" value="1" style="text;html=1;align=center;verticalAlign=middle;whiteSpace=wrap;rounded=0;" vertex="1" parent="1">
          <mxGeometry x="520" y="970" width="60" height="30" as="geometry" />
        </mxCell>
        <mxCell id="AYut2Y6KYgVJutitVhbc-15" value="N" style="text;html=1;align=center;verticalAlign=middle;whiteSpace=wrap;rounded=0;" vertex="1" parent="1">
          <mxGeometry x="600" y="760" width="60" height="30" as="geometry" />
        </mxCell>
        <mxCell id="AYut2Y6KYgVJutitVhbc-16" value="N" style="text;html=1;align=center;verticalAlign=middle;whiteSpace=wrap;rounded=0;" vertex="1" parent="1">
          <mxGeometry x="640" y="760" width="60" height="30" as="geometry" />
        </mxCell>
      </root>
    </mxGraphModel>
  </diagram>
</mxfile>
